<svg id="Frame_39" data-name="Frame 39" xmlns="http://www.w3.org/2000/svg" width="64" height="64" viewBox="0 0 64 64">
  <g id="Group">
    <path id="Vector" d="M16,8A8,8,0,1,1,8,0,8,8,0,0,1,16,8Z" transform="translate(24 6)" fill="#d3d3d3"/>
    <path id="Vector-2" data-name="Vector" d="M16,8A8,8,0,1,1,8,0,8,8,0,0,1,16,8Z" transform="translate(41.333 40.667)" fill="#d3d3d3"/>
    <path id="Vector-3" data-name="Vector" d="M16,8A8,8,0,1,1,8,0,8,8,0,0,1,16,8Z" transform="translate(6.667 40.667)" fill="#d3d3d3"/>
    <path id="Vector-4" data-name="Vector" d="M44,22A22,22,0,1,1,22,0,22,22,0,0,1,44,22Z" transform="translate(10 13.333)" fill="none" stroke="#d3d3d3" stroke-width="4"/>
  </g>
</svg>
