<svg id="Frame_38" data-name="Frame 38" xmlns="http://www.w3.org/2000/svg" width="64" height="64" viewBox="0 0 64 64">
  <g id="Group">
    <path id="Vector" d="M5.333,29.333h-4A1.337,1.337,0,0,1,0,28V1.333A1.337,1.337,0,0,1,1.333,0h4A1.337,1.337,0,0,1,6.667,1.333V28A1.337,1.337,0,0,1,5.333,29.333Z" transform="translate(6.667 28)" fill="#d3d3d3"/>
    <path id="Vector-2" data-name="Vector" d="M5.333,25.333h-4A1.337,1.337,0,0,1,0,24V1.333A1.337,1.337,0,0,1,1.333,0h4A1.337,1.337,0,0,1,6.667,1.333V24A1.337,1.337,0,0,1,5.333,25.333Z" transform="translate(50.667 32)" fill="#d3d3d3"/>
    <path id="Vector-3" data-name="Vector" d="M5.333,40h-4A1.337,1.337,0,0,1,0,38.667V1.333A1.337,1.337,0,0,1,1.333,0h4A1.337,1.337,0,0,1,6.667,1.333V38.667A1.337,1.337,0,0,1,5.333,40Z" transform="translate(21.333 17.333)" fill="#d3d3d3"/>
    <path id="Vector-4" data-name="Vector" d="M5.333,50.667h-4A1.337,1.337,0,0,1,0,49.333v-48A1.337,1.337,0,0,1,1.333,0h4A1.337,1.337,0,0,1,6.667,1.333v48A1.337,1.337,0,0,1,5.333,50.667Z" transform="translate(36 6.667)" fill="#d3d3d3"/>
  </g>
</svg>
