<svg id="Frame_42" data-name="Frame 42" xmlns="http://www.w3.org/2000/svg" width="64" height="64" viewBox="0 0 64 64">
  <g id="Group">
    <path id="Vector" d="M50.613,23.72c-6.353-3.98-8.133-8.067-6.327-15.193a27.006,27.006,0,0,0-2.14-2.14c-7.127,1.8-11.213.02-15.193-6.327Q26.143,0,25.333,0c-.54,0-1.08.02-1.613.053C19.74,6.407,15.653,8.187,8.527,6.38a27.007,27.007,0,0,0-2.14,2.14c1.8,7.127.02,11.213-6.327,15.193q-.06.81-.06,1.62c0,.54.02,1.08.053,1.613,6.353,3.98,8.133,8.067,6.327,15.193a27.006,27.006,0,0,0,2.14,2.14c7.127-1.8,11.213-.02,15.193,6.327q.81.06,1.62.06c.54,0,1.08-.02,1.613-.053,3.98-6.353,8.067-8.133,15.193-6.327a27.006,27.006,0,0,0,2.14-2.14c-1.8-7.127-.02-11.213,6.327-15.193q.06-.81.06-1.62C50.667,24.793,50.647,24.253,50.613,23.72Z" transform="translate(6.667 6.667)" fill="none" stroke="#d3d3d3" stroke-width="4"/>
    <path id="Vector-2" data-name="Vector" d="M17.333,8.667A8.667,8.667,0,1,1,8.667,0,8.667,8.667,0,0,1,17.333,8.667Z" transform="translate(23.333 23.333)" fill="none" stroke="#d3d3d3" stroke-width="4"/>
  </g>
</svg>
