<svg id="icon" xmlns="http://www.w3.org/2000/svg" width="64" height="64" viewBox="0 0 64 64">
  <g id="Group">
    <path id="Vector" d="M34.66,17.337A17.331,17.331,0,1,0,5.994,30.417v.92a11.352,11.352,0,0,0,9.333,11.147V44.67a2,2,0,1,0,4,0V42.483A11.341,11.341,0,0,0,28.66,31.337v-.92A17.26,17.26,0,0,0,34.66,17.337Zm-30.667,0A13.333,13.333,0,1,1,17.327,30.67,13.355,13.355,0,0,1,3.994,17.337ZM17.327,38.67a7.35,7.35,0,0,1-7.107-5.533,17.236,17.236,0,0,0,14.213,0A7.35,7.35,0,0,1,17.327,38.67Z" transform="translate(14.673 14.664)" fill="#afafaf"/>
    <path id="Vector-2" data-name="Vector" d="M2,0A2,2,0,0,0,0,2V7.333a2,2,0,0,0,4,0V2A2,2,0,0,0,2,0Z" transform="translate(30 2.667)" fill="#afafaf"/>
    <path id="Vector-3" data-name="Vector" d="M7.19,4.363,3.417.59A2,2,0,0,0,.59,3.417L4.363,7.19A2,2,0,0,0,7.19,4.363Z" transform="translate(10.663 10.664)" fill="#afafaf"/>
    <path id="Vector-4" data-name="Vector" d="M7.333,0H2A2,2,0,1,0,2,4H7.333a2,2,0,0,0,0-4Z" transform="translate(2.667 30)" fill="#afafaf"/>
    <path id="Vector-5" data-name="Vector" d="M.58,7.19a1.988,1.988,0,0,0,2.827,0L7.18,3.417A2,2,0,1,0,4.353.59L.58,4.363A2.012,2.012,0,0,0,.58,7.19Z" transform="translate(10.673 45.557)" fill="#afafaf"/>
    <path id="Vector-6" data-name="Vector" d="M.59,3.417,4.363,7.19A2,2,0,0,0,7.19,4.363L3.417.59A2,2,0,0,0,.59,3.417Z" transform="translate(45.557 45.557)" fill="#afafaf"/>
    <path id="Vector-7" data-name="Vector" d="M0,2A2,2,0,0,0,2,4H7.333a2,2,0,0,0,0-4H2A2,2,0,0,0,0,2Z" transform="translate(52 30)" fill="#afafaf"/>
    <path id="Vector-8" data-name="Vector" d="M7.19.59a1.988,1.988,0,0,0-2.827,0L.59,4.363A2,2,0,0,0,3.417,7.19L7.19,3.417A2.012,2.012,0,0,0,7.19.59Z" transform="translate(45.557 10.664)" fill="#afafaf"/>
  </g>
</svg>
