<svg id="icon" xmlns="http://www.w3.org/2000/svg" width="64" height="64" viewBox="0 0 64 64">
  <g id="Group">
    <path id="Vector" d="M24.407,33.64a3.947,3.947,0,0,1-1.36-3V8.187A8.273,8.273,0,0,0,14.674,0,8.293,8.293,0,0,0,6.287,8.187V30.64A4.024,4.024,0,0,1,4.9,33.667,14.022,14.022,0,0,0,.074,45.773a14.5,14.5,0,0,0,12.933,12.8c.547.053,1.093.093,1.627.093a14.906,14.906,0,0,0,9.813-3.653,14.1,14.1,0,0,0-.04-21.373ZM21.661,51.973a10.631,10.631,0,0,1-8.187,2.547,10.494,10.494,0,0,1-9.227-9.133A10.029,10.029,0,0,1,7.7,36.733a8.071,8.071,0,0,0,2.787-6.08V8.187a4.188,4.188,0,0,1,8.373,0V30.64a8.068,8.068,0,0,0,2.76,6.067,10.074,10.074,0,0,1,.04,15.267Z" transform="translate(17.333 2.667)" fill="#afafaf"/>
    <path id="Vector-2" data-name="Vector" d="M7.693,32.227V1.36a1.4,1.4,0,0,0-2.8,0V32.227A6.116,6.116,0,0,0,6.28,44.333,6.218,6.218,0,0,0,12.56,38.2,6.146,6.146,0,0,0,7.693,32.227Zm-1.4,9.387a3.414,3.414,0,1,1,0-6.827,3.414,3.414,0,1,1,0,6.827Z" transform="translate(25.714 9.494)" fill="#afafaf"/>
  </g>
</svg>
